<?xml version="1.0" encoding="utf-8"?>
<!-- Generator: Adobe Illustrator 24.3.1, SVG Export Plug-In . SVG Version: 6.00 Build 0)  -->
<svg version="1.1" id="Layer_1" xmlns="http://www.w3.org/2000/svg" xmlns:xlink="http://www.w3.org/1999/xlink" x="0px" y="0px"
	 viewBox="0 0 800.18 389.09" style="enable-background:new 0 0 800.18 389.09;" xml:space="preserve">
<style type="text/css">
	.st0{stroke:#000000;stroke-width:2;stroke-miterlimit:10;}
</style>
<g>
	<path class="st0" d="M454.42,127.71c-2.25,2.97-4.23,5.76-6.39,8.4c-2.12,2.58-4.17,5.3-6.7,7.42c-4.19,3.52-10.18,3.72-12.54-3.66
		c-0.49-1.52-1.01-3.06-1.24-4.63c-0.91-6.13-1.85-12.27-2.47-18.44c-0.18-1.76,0.57-3.65,1.07-5.43c0.55-1.92,2.26-2.61,3.81-1.9
		c1.44,0.66,3.1,2.01,3.55,3.41c0.73,2.28,0.64,4.85,0.71,7.3c0.03,0.88-0.2,2.13-0.79,2.61c-1.83,1.46-2.05,3.01-1.48,5.21
		c0.89,3.42,1.26,6.98,2.08,10.42c0.18,0.77,1.27,1.75,2.03,1.84c0.94,0.11,2.4-0.34,2.89-1.05c1.86-2.71,3.85-4.9,7.29-5.73
		c1.13-0.28,2.43-2.03,2.7-3.31c1.22-5.69,2.09-11.45,3.09-17.19c0.11-0.64,0.11-1.34,0.37-1.91c0.83-1.87,2.5-2.24,3.66-0.57
		c1.09,1.56,1.88,3.43,2.38,5.28c0.97,3.61,1.56,7.32,2.49,10.95c0.62,2.42,1.31,4.89,2.47,7.08c0.54,1.03,2.34,2.1,3.4,1.95
		c1.17-0.16,2.4-1.54,3.16-2.68c1.57-2.35,2.04-5.57,6.12-5.43c0.92,0.03,2.21-2.36,2.83-3.84c1.97-4.74,3.72-9.57,5.53-14.37
		c0.39-1.04,0.51-2.2,1.03-3.16c0.47-0.86,1.32-2.11,2.02-2.12c0.98-0.02,2.54,0.73,2.87,1.55c1.4,3.45,2.21,7.13,3.65,10.56
		c1.53,3.66,3.36,7.22,5.41,10.61c0.68,1.12,2.4,1.92,3.79,2.24c3.63,0.84,7.33,1.46,11.04,1.87c0.88,0.1,2.1-0.77,2.75-1.54
		c0.26-0.3-0.51-1.6-0.96-2.36c-3.46-5.88-4.86-11.96-3.05-18.81c1.78-6.74,4.34-12.85,9.73-17.52c7.95-6.89,15.19-7.2,23.95-1.01
		c2.81,1.98,5.29,4.7,9.38,4.21c1.99-0.24,2.73,1.68,3.15,3.38c0.2,0.79,0.2,1.63,0.91,2.6c0.28-0.66,0.72-1.31,0.81-2
		c0.82-6.4,1.75-12.8,2.3-19.23c0.72-8.46,1.31-16.94,1.57-25.42c0.2-6.61-0.33-13.23-0.24-19.84c0.02-1.7,1.13-3.39,1.79-5.06
		c0.2-0.51,0.76-0.94,0.82-1.44c0.3-2.54,1.74-3.55,4.2-3.6c2.62-0.05,4,1.56,4.8,3.63c1.26,3.3-0.24,6.03-2.92,8.56
		c-1.24,1.18-1.19,3.78-1.59,5.77c-0.23,1.13-0.11,2.33-0.26,3.48c-0.31,2.47-0.9,4.91-1,7.39c-0.37,8.89-0.42,17.79-0.94,26.67
		c-0.27,4.57-1.64,9.08-1.89,13.65c-0.34,6.12-0.08,12.27-0.08,19c1.62-0.16,3.28-0.36,4.95-0.49c1.35-0.1,2.39,0.23,1.65,1.92
		c-0.52,1.19-1.17,2.32-1.73,3.49c-0.95,1.97-2.12,3.89-2.77,5.96c-0.74,2.37-2.9,4.27-5.43,3.84c-0.74-0.12-1.81-1.09-1.91-1.79
		c-0.55-3.71-0.84-7.45-1.22-11.19c-0.08-0.75,0.08-1.59-0.21-2.24c-0.29-0.66-0.99-1.13-1.51-1.68c-0.4,0.55-0.95,1.05-1.16,1.66
		c-1.36,3.87-2.44,7.85-4.08,11.59c-0.49,1.12-2.53,2.2-3.81,2.15c-1.33-0.06-2.63-1.47-3.84-2.42c-0.21-0.16-0.07-1.03,0.15-1.45
		c1.89-3.74,3.28-7.37,1.55-11.76c-0.78-1.98-0.04-4.53-0.22-6.8c-0.13-1.6-1.08-2.52-2.82-3.04c-1.42-0.42-3.01-1.5-3.76-2.74
		c-1.82-3.02-4.66-3.12-7.36-2.7c-2.46,0.38-5.03-1.68-7.31,0.45c-0.41,0.38-1.19,0.7-1.22,1.1c-0.27,3.42-3.72,4.84-4.76,7.64
		c-1.17,3.13-1.57,6.55-2.68,9.71c-1.37,3.89-0.66,7.36,1.24,10.79c1.13,2.03,2.45,3,5.04,2.12c1.94-0.66,4.18-0.45,6.5-0.64
		c-0.35,1.35-0.54,2.11-0.91,3.53c3.16-1.29,5.83-2.38,8.6-3.52c-0.01,1.84-1.19,3.05-3.88,4.16c-2.37,0.98-4.76,2.51-7.2,2.64
		c-6.19,0.34-11.81,3.56-18.22,2.91c-9.73-0.98-16.96-5.91-20.05-15.51c-0.25-0.78-1.04-1.38-1.58-2.06
		c-0.68,0.57-1.6,1.01-2.01,1.74c-2.46,4.33-4.49,8.95-7.3,13.04c-2.2,3.21-4,6.85-7.94,8.77c-3.94,1.91-8.59,0.98-10.63-2.94
		c-1.39-2.66-2.57-5.43-3.88-8.13C455.42,128.98,454.93,128.44,454.42,127.71z"/>
	<path class="st0" d="M21.9,155.66c1.96,2.18,5.07,3.2,8.1,3.38c7.45,0.44,14.92,0.44,22.39,0.43c1.33,0,2.63-1.24,4-1.4
		c4.79-0.55,8.89-4.76,14.24-2.5c2.21,0.93,4.37,0.01,5.9-1.72c4.74-5.39,7.1-11.99,7.23-18.92c0.12-6.59-0.5-13.55-3.88-19.36
		c-3.32-5.72-4.75-12.47-9.77-17.28c-5.95-5.71-12.56-9.25-21.06-7.91c-0.98,0.15-2.12,0.45-2.79,1.1c-2,1.95-3.78,4.14-5.7,6.17
		c-0.62,0.65-1.39,1.54-2.16,1.6c-1.71,0.14-3.46-0.17-5.19-0.29c0.61-1.55,0.88-3.38,1.9-4.59c4.65-5.53,9.69-10.73,14.22-16.35
		c4.29-5.32,7.8-11.31,12.28-16.45c2.85-3.26,5.07-6.8,7.27-10.43c0.51-0.83,0.66-1.89,0.91-2.87c0.14-0.54-0.03-1.51,0.23-1.62
		c2.65-1.13,2.58-4.06,4.08-5.89c0.89-1.08,2.2-2.12,3.92-0.87c0.47,0.34,1.54,0.31,2.07,0.01c2.07-1.18,3.85-0.67,5.84,0.34
		c5.03,2.55,9.08,6.16,12.43,10.65c2.3,3.09,4.9,5.97,7.13,9.1c0.94,1.31,1.19,3.09,1.9,4.59c2.13,4.5,4.33,8.97,6.65,13.75
		c2.6-3.28,5.5-6.09,7.26-9.49c1.01-1.94,1.9-3.51,3.55-5.01c2.16-1.96,3.52-4.8,5.65-6.81c3.42-3.23,6.99-6.38,10.87-9.02
		c4.63-3.15,9.61-5.83,14.55-8.48c1.39-0.74,3.2-0.69,4.46-0.93c-1.09,1.14-2.08,2.5-3.36,3.44c-1.67,1.22-3.61,2.07-5.38,3.16
		c-2.28,1.4-4.77,2.58-6.7,4.36c-4.92,4.56-10.38,8.52-14,14.49c-1.93,3.18-4.38,6.05-6.34,9.34c-2.89,4.84-2.76,10.3-4.71,15.25
		c-0.34,0.87-0.69,1.74-1.08,2.58c-0.87,1.89-2.42,3.3-4.42,2.66c-1.22-0.39-2.46-1.95-2.91-3.25c-1.71-4.93-3.03-10-4.66-14.97
		c-0.6-1.83-1.6-3.54-2.54-5.24c-2.64-4.78-5.16-9.64-8.11-14.22c-1.3-2.02-3.51-3.44-5.73-5.53c0.39,3.12,2.32,5.94-0.98,9.02
		c-1.24-2.52-2.18-4.74-3.39-6.81c-0.77-1.32-1.69-2.79-2.94-3.54c-2.53-1.53-4.2-0.45-4.02,2.51c0.27,4.33-2.28,7.64-4.02,11.16
		c-0.68,1.37-2.95,1.94-5.19,3.29c1.09-3.91,4.41-6.08,3.68-10.53c-3.18,4.19-5.94,7.82-8.87,11.67c1.08,0.59,1.68,0.91,2.86,1.56
		c-2.01,1.3-3.65,2.37-5.29,3.43c-0.1-0.18-0.2-0.37-0.3-0.55c-3.25,3.61-6.5,7.21-10.07,11.17c1.18,0.39,1.69,0.73,2.18,0.7
		c4-0.25,7.35,1.68,10.51,3.59c3.69,2.23,7.19,4.87,10.4,7.75c1.64,1.47,2.56,3.79,3.63,5.83c2.37,4.51,5.11,8.9,6.81,13.66
		c3.07,8.64,5.58,17.78,3.32,26.81c-1.94,7.75-6.45,14.18-13.91,18.68c-7.78,4.69-16.07,4.39-24.4,5.06
		c-1.49,0.12-2.97,0.68-4.43,0.6c-5.83-0.32-11.66-0.69-17.47-1.3c-4.19-0.44-7.94-2.26-10.94-5.19c-0.81-0.79-1.06-2.79-0.71-3.98
		c0.61-2.08,1.82-4,2.9-5.92c1.33-2.36,3.09-4.42,6-4.51c1.02-0.03,2.44,0.8,3.01,1.68c0.7,1.07-0.03,1.94-1.22,2.89
		C25.51,151.08,23.9,153.39,21.9,155.66z"/>
	<path class="st0" d="M193.6,378.48c1.52,0.18,3.04,0.34,4.55,0.53c1.29,0.17,2.62,0.68,3.84,0.49c3.04-0.47,6.04-1.2,9.03-1.93
		c9.26-2.28,18.52-4.62,27.77-6.94c0.45-0.11,1.06-0.14,1.32-0.45c2.61-3.13,6.71-3.59,10.01-3.99c3.79-0.45,6.5-1.9,9.44-3.87
		c3.47-2.32,7.5-3.83,10.82-6.31c1.97-1.47,3.3-4.01,4.48-6.3c3.35-6.55,5.21-13.64,6.51-20.82c1.58-8.78,2.83-17.62,3.97-26.47
		c1.16-9.03,2-18.11,3-27.17c0.67-6.07,1.35-12.15,2.07-18.21c0.84-7,1.38-14.07,2.7-20.98c1.68-8.82,3.73-17.59,6.14-26.23
		c2.73-9.84,5.78-19.61,9.21-29.23c1.45-4.05,4.16-7.67,6.44-11.4c0.87-1.42,2.12-2.6,3.16-3.86c-2.49-4.34-7.29-5.63-12.16-2.83
		c-2.96,1.7-5.41,4.26-8.22,6.24c-0.93,0.66-2.29,0.71-3.46,1.04c0-1.03-0.33-2.22,0.06-3.08c2.64-5.77,5.8-11.33,8.06-17.24
		c2.25-5.89,3.84-12.11,1.1-18.41c-0.37-0.86-1.15-1.54-1.74-2.3c-0.72,0.68-1.59,1.25-2.11,2.05c-0.85,1.3-1.46,2.75-2.55,4.87
		c-1.12-2.76-2.22-4.81-2.78-7.01c-0.59-2.33,3.13-8.12,5.43-8.69c0.94-0.23,2.39-0.28,2.97,0.27c1.9,1.79,4.15,3.63,5.09,5.93
		c2.39,5.83,3.34,11.95,1.05,18.18c-1.45,3.93-2.77,7.91-4.06,11.89c-0.21,0.65-0.1,1.54,0.2,2.15c0.14,0.28,1.23,0.39,1.69,0.17
		c6.17-2.94,10.71,0.6,15.4,3.73c2.61,1.74,5.28,3.41,8.02,4.94c2.27,1.28,4.62,2.19,5.49,5.15c0.4,1.37,2.06,2.35,3.1,3.55
		c0.73,0.84,1.53,1.69,2.03,2.67c0.32,0.61,0.46,1.88,0.12,2.13c-0.54,0.41-1.74,0.58-2.3,0.25c-2.07-1.22-3.99-2.68-5.96-4.05
		c-0.15-0.11-0.25-0.35-0.41-0.38c-3.48-0.64-6.95-1.47-10.46-1.77c-1.1-0.09-2.56,1.02-3.44,1.97
		c-6.18,6.57-7.94,15.09-10.17,23.42c-0.97,3.6-2.59,7.03-3.57,10.63c-1.45,5.34-2.68,10.74-3.81,16.16
		c-0.99,4.77-1.85,9.58-2.52,14.4c-0.6,4.28-1.5,8.67-1.12,12.91c0.6,6.64-1.57,12.73-2.49,19.07c-0.03,0.19-0.06,0.37-0.07,0.56
		c-0.59,7.33-1,14.68-1.81,21.99c-0.81,7.28-2.02,14.52-3.07,21.78c-0.52,3.63-0.82,7.32-1.66,10.88
		c-1.35,5.73-3.26,11.33-4.58,17.07c-1.1,4.77-3.71,8.68-6.67,12.27c-4.21,5.11-9.49,8.87-16.14,10.47
		c-1.18,0.28-2.11,1.6-3.18,2.39c-0.69,0.51-1.58,1.45-2.16,1.31c-5.56-1.4-10.11,1.72-15.04,3.13c-5.47,1.56-10.92,3.23-16.45,4.55
		c-5.3,1.26-10.65,2.39-16.05,3.09c-4.7,0.61-9.32-0.47-13.68-2.36c-0.33-0.14-0.46-0.74-0.68-1.12
		C193.4,379.08,193.5,378.78,193.6,378.48z"/>
	<path class="st0" d="M752.4,129.78c4.3-0.71,8.45-1.96,12.58-1.86c2.44,0.06,5.17,1.88,7.14,3.62c1.53,1.36-0.2,3.98-2.7,4.79
		c-0.86,0.28-1.51,1.19-2.36,1.48c-1.02,0.35-2.17,0.48-3.26,0.46c-2.39-0.03-4.89-0.73-7.14-0.22c-2.9,0.66-4.57,2.99-5.28,6.04
		c-0.23,0.99-1.51,1.74-2.31,2.6c-0.74-0.97-1.91-1.84-2.14-2.92c-0.83-3.91-0.74-4.14-4.79-3.57c-6.79,0.96-13.54,2.27-20.32,3.33
		c-4.92,0.77-9.87,1.31-14.78,2.08c-5.93,0.93-11.84,1.98-17.76,2.98c-0.65,0.11-1.31,0.18-1.96,0.29
		c-7.58,1.28-15.15,2.59-22.73,3.84c-3.52,0.58-7.07,1.03-10.59,1.6c-5.46,0.89-10.92,1.84-16.38,2.75
		c-5.09,0.85-10.2,1.61-15.28,2.51c-5.89,1.05-11.76,2.19-17.63,3.33c-2.56,0.5-5.09,1.12-7.65,1.64c-4.13,0.85-8.27,1.64-12.4,2.49
		c-3.95,0.81-7.86,2.08-11.86,2.42c-7.36,0.62-14.19,3.28-21.3,4.83c-2.73,0.59-5.48,1.13-8.21,1.72
		c-6.04,1.29-12.09,2.55-18.12,3.9c-6.84,1.54-13.67,3.14-20.5,4.75c-6.66,1.57-13.3,3.23-19.97,4.79
		c-4.75,1.12-9.55,2.03-14.28,3.24c-5.99,1.53-11.91,3.3-17.88,4.89c-5.45,1.45-10.93,2.79-16.38,4.23
		c-1.35,0.36-2.65,0.89-3.96,1.36c-3.68,1.31-7.36,2.62-11.01,3.98c-0.78,0.29-1.93,0.68-2.12,1.28c-0.92,2.9-3.75,2.13-5.61,3.17
		c-0.21,0.12-0.63,0.12-0.81-0.02c-0.64-0.47-1.79-1.4-1.73-1.49c1.39-2.15-3.01-3.95-0.35-6.08c4.09-3.29,8.14-6.11,14.02-4.38
		c1.96,0.58,4.54-0.71,6.78-1.37c2.78-0.82,5.47-1.96,8.25-2.78c4.76-1.41,9.56-2.7,14.36-3.99c4.7-1.27,9.4-2.52,14.12-3.71
		c6.55-1.64,13.11-3.26,19.69-4.79c5.03-1.17,10.12-2.13,15.16-3.29c5.39-1.24,10.74-2.6,16.11-3.9c0.9-0.22,1.81-0.44,2.72-0.64
		c5.48-1.22,10.96-2.42,16.43-3.65c1.83-0.41,3.62-0.99,5.46-1.34c5.61-1.05,11.26-1.9,16.85-3.05c7.35-1.51,14.65-3.28,22-4.82
		c5.24-1.1,10.53-2,15.79-3c4.95-0.94,9.9-1.89,14.84-2.86c5.99-1.18,11.97-2.36,17.95-3.59c4.85-1,9.67-2.17,14.53-3.09
		c3.79-0.72,7.62-1.21,11.44-1.72c8.12-1.1,16.27-2,24.37-3.27c7.68-1.2,15.29-2.88,22.97-4.14c4.92-0.81,9.92-1.16,14.86-1.89
		c3.9-0.58,7.75-1.56,11.65-2.12c5.47-0.79,10.96-1.51,16.47-1.99C751.66,134.27,751.94,134.2,752.4,129.78z"/>
	<path class="st0" d="M180.51,22.24c-0.48-0.66-0.88-1.39-1.45-1.96c-0.81-0.8-1.9-2.2-2.59-2.05c-1.05,0.23-2.33,1.41-2.67,2.47
		c-0.78,2.39-1.04,4.96-1.55,7.45c-1.01,4.93-2.11,9.85-3.06,14.8c-0.32,1.65-0.31,3.38-0.4,5.07c-0.63,11.72-1.02,23.45-1.96,35.15
		c-0.62,7.74-2.23,15.39-3.04,23.12c-0.89,8.51-1.09,17.1-2.11,25.59c-0.98,8.2-2.65,16.31-3.97,24.47c-0.3,1.86-0.3,3.77-0.55,5.65
		c-1.15,8.48-2.45,16.94-3.49,25.43c-0.78,6.37-1.25,12.78-1.87,19.17c-0.4,4.12-0.72,8.25-1.28,12.35
		c-0.38,2.78-3.17,2.84-5.02,3.14c-0.92,0.15-3.03-1.85-3.19-3.06c-0.47-3.53-0.23-7.16-0.26-10.74c0-0.19-0.01-0.42,0.1-0.55
		c2.77-3.57,3.41-7.8,3.82-12.11c0.18-1.87,0.46-3.72,0.71-5.58c0.93-6.89,1.92-13.78,2.79-20.67c1.05-8.39,1.93-16.81,3.01-25.2
		c1-7.81,2.2-15.6,3.25-23.41c0.95-7.07,1.93-14.14,2.67-21.24c0.64-6.17,0.97-12.38,1.39-18.58c0.4-5.91,0.64-11.84,1.09-17.75
		c0.46-5.91,0.77-11.86,1.73-17.69c1.09-6.54,3.03-12.94,4.21-19.47c0.58-3.22,0.22-6.6,0.4-9.9c0.2-3.81,3.4-5.62,5.85-7.62
		c1.23-1,3.67-0.51,4.59,1.87c1.1,2.86,2.47,5.62,3.51,8.49c0.34,0.94,0.05,2.12,0.05,3.19C181,22.11,180.76,22.17,180.51,22.24z"/>
	<path class="st0" d="M267.46,155.05c0.76-7.24,0-13.1-3.19-18.52c-0.96-1.62-1.77-1.53-3.77-1.03c-3.49,0.88-6.5,2.48-9.06,4.61
		c-3.98,3.32-9.7,4.06-12.63,8.82c-3.85,6.25-7.93,12.37-11.58,18.73c-1.97,3.44-3.32,7.24-4.77,10.95
		c-0.39,0.99-0.24,2.26-0.12,3.37c0.06,0.54,0.55,1.36,0.96,1.44c0.46,0.09,1.3-0.38,1.56-0.84c1.9-3.31,4.86-5.02,8.46-5.77
		c0.48-0.1,1.27-0.11,1.47,0.16c0.23,0.32,0.17,1.14-0.1,1.5c-2.33,3.12-4.1,6.84-7.79,8.63c-1.87,0.91-4.05,1.56-6.09,1.59
		c-1.08,0.02-2.82-1.35-3.16-2.44c-1.24-3.94-0.96-7.86,0.84-11.76c1.71-3.7,2.9-7.63,4.35-11.45c0.3-0.78,0.65-1.55,1.11-2.25
		c2.01-3.09,3.94-6.25,6.13-9.2c3.19-4.3,6.43-8.58,9.93-12.63c2.53-2.93,5.26-5.82,8.36-8.11c2.72-2,5.95-3.54,9.18-4.57
		c4.03-1.27,7.1,1.08,9.67,4.29c4.97,6.24,7.06,13.43,6.84,21.47c-0.15,5.68,0.42,11.37,0.54,17.05c0.03,1.28-0.58,2.56-0.74,3.85
		c-0.57,4.64-1.02,9.3-1.64,13.93c-0.13,0.97-0.79,1.87-1.2,2.8c-0.74-0.84-2.02-1.61-2.14-2.53c-0.7-5.39-1.56-10.83-1.52-16.24
		c0.04-4.48-1.46-7.95-4.24-11.14c-0.24-0.28-0.6-0.48-0.79-0.79c-2.3-3.83-2.19-3.72-5.55-0.41c-3.41,3.36-7.04,6.49-10.67,9.63
		c-0.59,0.51-1.63,0.5-2.46,0.72c-0.12-0.94-0.59-2.02-0.29-2.8c0.46-1.17,1.37-2.22,2.26-3.17c3.54-3.8,7.09-7.6,10.75-11.29
		c2.54-2.57,3.9-2.45,6.71,0.02C264.27,152.73,265.59,153.62,267.46,155.05z"/>
	<path class="st0" d="M603.11,101.72c-1.12,3.58-1.49,7.67-3.54,10.59c-2.4,3.42-5.09,7.21-9.7,8.4c-1.9,0.49-4.69-1.35-4.53-3.39
		c0.29-3.62,0.38-7.44,1.63-10.77c2.25-5.97,5.3-11.65,8-17.45c1.96-4.21,3.64-8.56,5.92-12.58c1.48-2.61,3.79-4.76,5.78-7.08
		c0.9-1.05,2.12-1.88,2.84-3.03c1.51-2.42,5.54-3.48,7.3-0.02c1.69,3.3,2.63,6.99,4.32,10.29c2.11,4.1,0.61,8.36,1.03,12.52
		c0.1,1.01-1.15,2.24-1.95,3.23c-2.47,3.04-3.64,6.4-3.31,10.37c0.26,3.02-0.02,6.1,0.29,9.11c0.16,1.61,1.13,3.13,1.6,4.73
		c0.23,0.8,0.17,1.69,0.24,2.54c-0.99-0.23-2.39-0.13-2.92-0.76c-2.61-3.08-3.9-6.79-4.07-10.8c-0.13-3.05,0-6.1-0.04-9.15
		c-0.01-0.5-0.31-0.99-0.63-1.94c-2.17,2.51-4.06,4.69-5.64,6.52c-0.82-0.37-1.75-0.8-2.69-1.23c0.63-1.63,0.92-3.53,1.95-4.84
		c3.97-5.08,6.18-11,8.57-16.85c0.28-0.68-0.18-1.67-0.3-2.52c-0.74,0.17-1.64,0.13-2.2,0.55c-2.67,2-3.92,5.61-7.62,6.57
		c-0.66,0.17-0.98,1.72-1.43,2.64c-1,2.08-1.98,4.17-2.97,6.25c-2.06,4.35-4.19,8.67-6.15,13.06c-0.71,1.59-1.07,3.35-1.47,5.06
		c-0.1,0.41,0.25,0.94,0.39,1.41c0.47-0.21,1.15-0.3,1.37-0.66c0.91-1.5,1.57-3.17,2.56-4.61c0.46-0.67,1.7-1.56,2.16-1.36
		c1.95,0.85,2.18-0.5,2.84-1.67C601.35,103.71,602.3,102.75,603.11,101.72z"/>
	<path class="st0" d="M644.19,64.16c3.42,4.08,3.22,8.31,3.46,12.18c0.46,7.26,0.18,14.57,0.38,21.85c0.08,2.88,0.62,5.75,1,9.05
		c3.65-2.37,2.16-5.97,3.33-8.59c1.22-2.73,2.68-5.35,4.1-8.15c0.28,0.8,0.68,1.91,1.08,3.03c-0.22-3.11,2.11-6.36-0.76-9.43
		c-0.48-0.52,0.42-2.14,0.32-3.22c-0.65-6.62,0.89-12.87,2.93-19.08c0.37-1.13,0.02-2.48,0.35-3.63c0.84-2.92,1.32-6.17,2.98-8.59
		c2.68-3.93,7.44-3.76,11.52-2.41c1.86,0.61,3.7,1.27,5.6,1.73c6.26,1.5,10.52,5.72,14.06,10.66c1.09,1.52,0.96,3.91,1.39,5.9
		c-0.45,0.22-0.9,0.44-1.35,0.65c-1.15-1.38-2.14-2.94-3.49-4.09c-2.35-2-4.81-3.93-7.43-5.54c-4.55-2.79-9.57-2.75-14.6-2.14
		c0.2,0.26,0.4,0.52,0.6,0.78c-0.68,1.16-1.38,2.31-2.04,3.49c-0.49,0.88-1.13,1.74-1.37,2.69c-0.79,3.17-1.44,6.37-2.1,9.57
		c-0.13,0.61-0.14,1.27-0.08,1.9c0.28,3.2,0.65,6.38-1.1,9.37c-0.39,0.67-0.65,1.74-0.39,2.41c0.75,1.96,0.96,3.63-0.98,5.04
		c-0.29,0.21-0.49,0.99-0.33,1.28c2.1,3.88-0.91,6.15-2.53,8.99c-0.98,1.72-1.06,3.94-1.58,5.92c-0.87,3.31-2.76,5.86-5.68,7.7
		c-3.23,2.03-6.94,0.59-7.47-3.12c-0.51-3.53-0.84-7.1-1.12-10.66c-0.47-5.83-0.01-11.88-1.49-17.43c-1.37-5.16-1.03-9.18,2.1-13.34
		C644.19,67.99,643.91,66.31,644.19,64.16z"/>
	<path class="st0" d="M394.43,117.51c5.5,1.24,5.81,5.49,5.97,9.34c0.16,3.79-0.69,7.61-0.86,11.43c-0.15,3.47-0.23,6.98,0.11,10.43
		c0.28,2.87,2.19,4.88,4.99,5.96c0.02,0.29,0.05,0.58,0.07,0.88c-1.02,0.21-2.13,0.8-3.04,0.57c-3.48-0.88-5.75-3.39-7.17-6.51
		c-1.04-2.28-2.56-2.36-4.35-1.5c-7.15,3.46-14.16,7.26-21.43,10.46c-3.81,1.68-8.02,2.5-12.11,3.48c-2.72,0.65-5.03-0.78-6.8-2.61
		c-0.85-0.87-1.46-2.68-1.18-3.81c1.14-4.61,2.78-9.09,4.02-13.67c0.83-3.07,1.49-6.22,1.86-9.38c0.59-5.02,0.75-10.01-0.56-15.04
		c-0.5-1.93,0.19-4.31,0.83-6.33c0.19-0.61,2.46-1.29,3.12-0.88c3.33,2.06,6.12,4.43,5.74,9.16c-0.37,4.68,0.85,9.66-1.7,13.89
		c-3.85,6.41-4.65,13.87-7.7,20.54c-0.92,2.02,0.77,3.9,2.96,3.45c4.95-1,10.06-1.6,14.78-3.27c4.7-1.67,8.9-4.73,13.52-6.7
		c6.46-2.76,8.4-7.46,7.11-14.02c-0.4-2.02-0.57-4.08-0.83-6.12c-0.06-0.47-0.2-0.98-0.07-1.41
		C392.58,123.09,393.5,120.36,394.43,117.51z"/>
	<path class="st0" d="M781.14,153.68c-0.64,2.53,0.56,5.45-3.01,5.38c-0.76-0.01-1.88-0.61-2.18-1.24c-1.22-2.6-2.43-5.26-3.17-8.02
		c-0.51-1.91,0.36-3.79,2.55-4.33c2.16-0.53,3.92-0.04,4.44,2.55C780.21,150.1,780.77,152.15,781.14,153.68z"/>
</g>
</svg>
